<?xml version="1.0" encoding="UTF-8"?>
<svg version="1.1" xmlns="http://www.w3.org/2000/svg" width="512" height="512">
<path d="M0 0 C168.96 0 337.92 0 512 0 C512 168.96 512 337.92 512 512 C343.04 512 174.08 512 0 512 C0 343.04 0 174.08 0 0 Z " fill="#1A1A1A" transform="translate(0,0)"/>
<path d="M0 0 C12.54 0 25.08 0 38 0 C46.53603008 17.48845187 55.04787101 34.96093755 63.18432617 52.63769531 C67.18694388 61.30993017 71.31997188 69.91245924 75.5 78.5 C80.81126294 89.41201591 85.98803422 100.37659806 91.06616211 111.3996582 C95.90396823 121.86829238 100.91937247 132.24722643 105.9765625 142.61132812 C115 161.11964424 115 161.11964424 115 164 C102.79 164 90.58 164 78 164 C70.08 146.675 70.08 146.675 62 129 C33.62 128.67 5.24 128.34 -24 128 C-24.99 130.97 -25.98 133.94 -27 137 C-27.92226914 139.19374391 -28.88107793 141.37263457 -29.8828125 143.53125 C-30.41003906 144.67078125 -30.93726563 145.8103125 -31.48046875 146.984375 C-32.29451172 148.72460938 -32.29451172 148.72460938 -33.125 150.5 C-33.95064453 152.28664063 -33.95064453 152.28664063 -34.79296875 154.109375 C-38.85740938 162.85740938 -38.85740938 162.85740938 -40 164 C-42.6662603 164.08855161 -45.30647114 164.11524673 -47.97265625 164.09765625 C-48.77029892 164.0962413 -49.56794159 164.09482635 -50.38975525 164.09336853 C-52.94737435 164.08775316 -55.50490718 164.07519812 -58.0625 164.0625 C-59.79231645 164.05748698 -61.52213426 164.05292373 -63.25195312 164.04882812 C-67.50133553 164.03777875 -71.75065312 164.02050386 -76 164 C-73.84068175 156.80992966 -70.85753558 150.25748896 -67.53573608 143.53244019 C-65.94716422 140.31436184 -64.37865994 137.08651189 -62.80859375 133.859375 C-62.48689713 133.1990477 -62.1652005 132.5387204 -61.83375549 131.85838318 C-58.70466294 125.42181456 -55.68526221 118.93619491 -52.6875 112.4375 C-47.73976258 101.72489076 -42.73237469 91.04218763 -37.6875 80.375 C-36.96410368 78.84497432 -36.24071502 77.31494502 -35.51733398 75.78491211 C-34.42784201 73.48066355 -33.33830602 71.17643586 -32.24864197 68.87226868 C-28.40863883 60.75153397 -24.5763863 52.62715934 -20.75 44.5 C-20.42252777 43.80447021 -20.09505554 43.10894043 -19.75765991 42.39233398 C-13.11843529 28.28611907 -6.55223021 14.14686068 0 0 Z " fill="#FDFDFD" transform="translate(118,174)"/>
<path d="M0 0 C52.8 0 105.6 0 160 0 C160 9.24 160 18.48 160 28 C118.42 28 76.84 28 34 28 C34 42.52 34 57.04 34 72 C68.32 72 102.64 72 138 72 C138 80.91 138 89.82 138 99 C103.68 99 69.36 99 34 99 C34 120.45 34 141.9 34 164 C22.78 164 11.56 164 0 164 C0 109.88 0 55.76 0 0 Z " fill="#FCFCFC" transform="translate(257,174)"/>
<path d="M0 0 C0.66 0 1.32 0 2 0 C8.34353557 13.66194772 14.67860989 27.32779005 21 41 C21.32550842 41.70384827 21.65101685 42.40769653 21.98638916 43.13287354 C23.72691402 46.89797672 25.46031136 50.666262 27.1875 54.4375 C27.5901709 55.30971191 27.9928418 56.18192383 28.40771484 57.08056641 C31 62.7666029 31 62.7666029 31 65 C11.2 65 -8.6 65 -29 65 C-22.79094021 50.71916249 -16.54623313 36.4975396 -10 22.375 C-8.87417021 19.9422392 -7.74911083 17.50912898 -6.62548828 15.0753479 C-5.93904487 13.5888487 -5.25131114 12.10294435 -4.56201172 10.61776733 C-2.94205001 7.11320142 -1.39027189 3.60230625 0 0 Z " fill="#1C1C1C" transform="translate(136,209)"/>
<path d="M0 0 C12.87 0 25.74 0 39 0 C39 9.57 39 19.14 39 29 C26.13 29 13.26 29 0 29 C0 19.43 0 9.86 0 0 Z " fill="#00E1FB" transform="translate(421,309)"/>
</svg>
