<?xml version="1.0" encoding="UTF-8"?>
<svg version="1.1" xmlns="http://www.w3.org/2000/svg" width="512" height="512" viewBox="0 0 512 512">
<path d="M0 0 C12.54 0 25.08 0 38 0 C53.61486514 32.04441889 53.61486514 32.04441889 60.4375 46.875 C65.32085826 57.48639723 70.37372804 68.00440925 75.5 78.5 C81.18732513 90.14447708 86.75339612 101.83037972 92.16772461 113.60498047 C95.05131911 119.85752247 97.98729583 126.08040571 100.99609375 132.2734375 C101.33503662 132.97114258 101.67397949 133.66884766 102.02319336 134.38769531 C103.66826042 137.76967999 105.31919015 141.14868363 106.97705078 144.52441406 C107.57978072 145.75844981 108.18248383 146.99249866 108.78515625 148.2265625 C109.30988525 149.29471191 109.83461426 150.36286133 110.37524414 151.46337891 C112.4150651 155.90347604 114.18529637 160.46324093 116 165 C103.46 165 90.92 165 78 165 C72.39841292 153.79682585 67.08709933 142.4459735 62 131 C33.62 130.67 5.24 130.34 -24 130 C-24.33 131.65 -24.66 133.3 -25 135 C-25.91847755 137.28646719 -26.89358993 139.55053291 -27.90625 141.796875 C-28.33339294 142.74823334 -28.33339294 142.74823334 -28.76916504 143.71881104 C-29.36857007 145.05110963 -29.97046307 146.38229138 -30.57470703 147.71240234 C-31.50223257 149.75491637 -32.42163916 151.80093754 -33.33984375 153.84765625 C-37.84836049 163.84836049 -37.84836049 163.84836049 -39 165 C-41.8116338 165.08861992 -44.59858255 165.11522355 -47.41015625 165.09765625 C-48.25219101 165.0962413 -49.09422577 165.09482635 -49.96177673 165.09336853 C-52.66205335 165.08775263 -55.36224828 165.07519748 -58.0625 165.0625 C-59.88867068 165.05748705 -61.71484266 165.05292379 -63.54101562 165.04882812 C-68.02737542 165.03777804 -72.51367384 165.02050279 -77 165 C-73.20148583 155.45343837 -68.85332414 146.20714552 -64.41781616 136.94451904 C-62.72637075 133.41193016 -61.04166105 129.87614304 -59.35664368 126.34048462 C-58.49307736 124.52847481 -57.62921571 122.71660572 -56.76506042 120.90487671 C-52.71299507 112.40722102 -48.69320246 103.89459291 -44.6875 95.375 C-44.3602594 94.6792688 -44.0330188 93.9835376 -43.69586182 93.26672363 C-38.56533069 82.35678052 -33.46616386 71.43235938 -28.37573242 60.50366211 C-22.91456084 48.78708218 -17.39137682 37.09989565 -11.85961914 25.41650391 C-11.34220909 24.32289803 -11.34220909 24.32289803 -10.81434631 23.2071991 C-10.18154014 21.86979284 -9.54825242 20.53261422 -8.91429138 19.195755 C-5.89682321 12.81753979 -2.95739531 6.40768985 0 0 Z M19 37 C13.72432587 47.38485929 8.66711097 57.84785015 3.83520508 68.4465332 C2.80721147 70.6990883 1.77199986 72.94823218 0.73632812 75.19726562 C0.05946018 76.67688412 -0.61698679 78.15669527 -1.29296875 79.63671875 C-1.59204636 80.28501144 -1.89112396 80.93330414 -2.19926453 81.60124207 C-5.09701198 87.9862279 -7.46653182 94.41298273 -10 101 C9.14 101 28.28 101 48 101 C47.27672995 97.38364977 46.76007442 95.13042538 45.26928711 91.9543457 C44.91478989 91.19197098 44.56029266 90.42959625 44.1950531 89.64411926 C43.80970901 88.82956772 43.42436493 88.01501617 43.02734375 87.17578125 C42.62600723 86.31550827 42.22467072 85.45523529 41.81117249 84.56889343 C40.52506329 81.81433541 39.23165978 79.06328357 37.9375 76.3125 C36.25663491 72.72641775 34.57887501 69.13889142 32.90234375 65.55078125 C32.49196869 64.67358429 32.08159363 63.79638733 31.65878296 62.89260864 C27.6562796 54.31295813 23.80776342 45.66752354 20 37 C19.67 37 19.34 37 19 37 Z " fill="#FFFFFF" transform="translate(118,173)"/>
<path d="M0 0 C53.13 0 106.26 0 161 0 C161 9.57 161 19.14 161 29 C119.09 29 77.18 29 34 29 C34 43.52 34 58.04 34 73 C68.32 73 102.64 73 138 73 C138 81.91 138 90.82 138 100 C103.68 100 69.36 100 34 100 C34 121.45 34 142.9 34 165 C22.78 165 11.56 165 0 165 C0 110.55 0 56.1 0 0 Z " fill="#FFFFFF" transform="translate(257,173)"/>
<path d="M0 0 C12.87 0 25.74 0 39 0 C39 9.57 39 19.14 39 29 C26.13 29 13.26 29 0 29 C0 19.43 0 9.86 0 0 Z " fill="#00E4FF" transform="translate(421,309)"/>
</svg>
